<?xml version="1.0" encoding="UTF-8" standalone="no"?>
<!-- Created with Inkscape (http://www.inkscape.org/) -->

<svg
   version="1.1"
   id="svg2"
   width="392"
   height="246.66667"
   viewBox="0 0 392 246.66667"
   xmlns="http://www.w3.org/2000/svg"
   xmlns:svg="http://www.w3.org/2000/svg">
  <defs
     id="defs6" />
  <g
     id="g8">
    <path
       style="fill:#000000;stroke-width:1.33333"
       d="m 170.28125,236.50348 c -0.35536,-0.35536 -8.06401,-3.86721 -17.13034,-7.8041 -9.70967,-4.21626 -16.65947,-8.01263 -16.91063,-9.23754 -0.2912,-1.42024 2.03376,-3.18257 7.33333,-5.5587 4.26786,-1.91356 11.96504,-5.52458 17.10487,-8.0245 5.13983,-2.49992 10.08983,-4.5453 11,-4.5453 3.30405,0 1.54404,2.67717 -3.01129,4.58052 -5.58264,2.33257 -14.00052,8.55552 -14.00052,10.34992 0,0.79538 7.70422,0.99644 20.33333,0.53064 11.18333,-0.4125 30.43233,-1.1155 42.77557,-1.56224 l 22.44223,-0.81226 -0.44223,3.12338 -0.44224,3.12337 -36.66666,0.23139 c -50.4201,0.31817 -49.33334,0.2801 -49.33334,1.72824 0,0.71112 4.41667,3.33358 9.81482,5.82768 5.39814,2.49409 10.19469,5.14938 10.659,5.90066 0.85686,1.38643 -2.33999,3.33474 -3.5259,2.14884 z M 68,173.41503 c 0,-0.6884 2.55,-1.61728 5.666667,-2.06417 3.116666,-0.44691 60.113663,-0.63367 126.660003,-0.41503 l 120.99333,0.39751 -0.0242,-45.1914 c -0.0133,-24.85526 0.24979,-45.465343 0.58463,-45.800178 2.90773,-2.907738 3.45286,4.319736 3.45286,45.778778 0,38.44097 0.27735,44.73625 2,45.39729 1.1,0.42212 2,1.30328 2,1.95816 0,0.69059 -54.88094,1.19068 -130.66666,1.19068 C 118.13039,174.66667 68,174.18648 68,173.41503 Z m -1.744391,-5.08169 c -0.31264,-0.55 -0.433284,-22 -0.268097,-47.66667 L 66.287851,74.000001 192.59676,73.641485 c 101.58241,-0.288331 126.19849,-0.02732 125.74484,1.333333 -0.45032,1.35068 -25.4796,1.69185 -124.1196,1.69185 H 70.666469 l -0.01944,15.333333 c -0.06135,48.370459 -0.328017,70.410039 -0.89133,73.666669 -0.606584,3.50679 -2.292422,4.7912 -3.500083,2.66667 z m 292.597161,-3.44242 c -0.81056,-0.97666 -3.57698,-6.99286 -6.14762,-13.36933 -2.57064,-6.37648 -5.58094,-13.34759 -6.68952,-15.49137 -1.1086,-2.14379 -2.01563,-4.82759 -2.01563,-5.964 0,-3.88853 2.21023,-2.06751 5.17912,4.26712 3.54451,7.56277 7.66264,13.26934 8.77389,12.1581 0.44114,-0.44113 0.98599,-19.33217 1.2108,-41.98008 l 0.40875,-41.178026 H 362.78628 366 l -0.42809,24.127037 c -0.23546,13.269869 -0.66326,25.869869 -0.95067,27.999999 -0.72901,5.40294 -0.86672,32.73861 -0.16844,33.43689 0.31519,0.31518 3.19225,-4.55506 6.39347,-10.82274 5.44768,-10.66604 9.15373,-14.3682 9.15373,-9.14413 0,2.88452 -17.18705,37.73628 -18.60955,37.73628 -0.58516,0 -1.72712,-0.79909 -2.53768,-1.77575 z m -333.141461,-30.409 c 0.436938,-14.82269 1.383851,-27.44375 2.113772,-28.17367 2.476988,-2.47698 3.174783,8.06064 1.659996,25.06816 C 28.668285,140.5471 28,151.03904 28,154.69186 c 0,4.13321 -0.581647,6.64148 -1.540103,6.64148 -1.139801,0 -1.334373,-6.9792 -0.748588,-26.85142 z m 15.78602,-37.127 C 39.218165,89.747749 34.585443,83.080234 30.299305,81.23848 27.167653,79.892808 26.1938,80.01464 23.965972,82.030796 c -1.447951,1.310378 -2.632639,3.140216 -2.632639,4.066306 0,2.760445 -6.694789,15.236228 -8.176106,15.236228 -1.970234,0 -0.157087,-7.117525 3.840822,-15.077184 1.855534,-3.694285 4.73217,-10.055929 6.392523,-14.136986 5.255339,-12.917329 9.343699,-12.433333 13.264009,1.570244 1.279606,4.570828 4.270839,12.210597 6.647183,16.977264 2.376344,4.766667 4.055588,9.416662 3.731653,10.333332 -1.189412,3.36578 -3.98757,1.52341 -5.536088,-3.64508 z M 206.90224,43.204965 c 0.23709,-1.170603 2.7294,-2.916508 5.53845,-3.87979 2.80904,-0.963281 6.10904,-2.724439 7.33334,-3.913681 1.22428,-1.189244 3.85805,-3.497047 5.85282,-5.128451 5.77091,-4.719685 3.86844,-7.953276 -7.7536,-13.178611 -5.42868,-2.44077 -9.871,-4.887765 -9.8718,-5.437765 -0.003,-2.3512841 6.98474,-0.588814 21.33188,5.380077 14.51175,6.037367 15.33334,6.584207 15.33334,10.205648 0,3.443939 -0.72814,4.07397 -7.28346,6.302192 -4.00589,1.361647 -11.40368,4.568902 -16.4395,7.127235 -10.02218,5.091515 -14.73316,5.938043 -14.04147,2.523146 z M 144,27.46164 c 0,-2.436612 21.69728,-3.967933 41.33333,-2.917169 7.7,0.412043 15.72347,0.758099 17.82992,0.769015 3.25236,0.01685 3.57962,0.321457 2.17008,2.019848 C 202.93856,30.218864 144,30.342162 144,27.46164 Z"
       id="path30" />
  </g>
</svg>
